<?xml version="1.0" standalone="no"?>
<!DOCTYPE svg PUBLIC "-//W3C//DTD SVG 20010904//EN"
 "http://www.w3.org/TR/2001/REC-SVG-20010904/DTD/svg10.dtd">
<svg version="1.0" xmlns="http://www.w3.org/2000/svg"
 width="367.000000pt" height="183.000000pt" viewBox="0 0 367.000000 183.000000"
 preserveAspectRatio="xMidYMid meet">

<g transform="translate(0.000000,183.000000) scale(0.100000,-0.100000)"
fill="#000000" stroke="none">
<path d="M1587 1554 c-4 -4 -7 -126 -7 -271 l0 -263 36 0 35 0 -3 225 c-2 124
-2 225 -2 225 1 0 64 -101 140 -225 l139 -224 48 -1 47 0 -2 268 -3 267 -30 0
-30 0 0 -223 c0 -122 -2 -222 -5 -222 -3 0 -50 73 -105 161 -177 286 -176 284
-215 287 -20 2 -39 0 -43 -4z"/>
<path d="M2175 1425 c-75 -27 -115 -95 -115 -200 0 -75 18 -125 59 -166 29
-29 47 -38 89 -44 73 -10 145 9 177 47 31 36 31 46 3 57 -18 7 -29 3 -50 -19
-66 -66 -173 -40 -198 49 -18 64 -23 61 141 61 l151 0 -7 53 c-13 94 -43 138
-112 163 -49 17 -88 17 -138 -1z m148 -75 c17 -19 27 -42 27 -60 l0 -30 -111
0 -111 0 6 28 c24 97 126 131 189 62z"/>
<path d="M2555 1428 c-44 -15 -91 -64 -104 -107 -16 -54 -14 -155 5 -199 35
-84 102 -120 201 -107 105 13 161 104 150 241 -7 91 -42 147 -104 168 -53 18
-104 19 -148 4z m121 -54 c50 -24 74 -114 54 -207 -17 -85 -72 -121 -145 -97
-51 17 -69 57 -70 150 0 90 16 133 58 154 41 20 61 20 103 0z"/>
<path d="M538 950 l4 -70 51 0 52 0 -3 70 -4 70 -51 0 -52 0 3 -70z"/>
<path d="M870 856 c0 -23 4 -25 70 -28 l70 -3 0 28 c0 27 0 27 -70 27 -67 0
-70 -1 -70 -24z"/>
<path d="M595 388 c-9 -24 -1 -143 10 -143 13 0 19 135 6 148 -7 7 -12 5 -16
-5z"/>
<path d="M724 386 c-10 -26 1 -139 14 -144 8 -2 12 9 12 36 0 23 6 45 15 52
17 14 23 5 27 -49 5 -57 28 -51 28 8 0 55 -19 77 -52 60 -15 -8 -18 -5 -18 21
0 30 -16 41 -26 16z"/>
<path d="M1356 393 c-3 -3 -6 -48 -6 -100 0 -76 3 -93 15 -93 12 0 15 17 15
94 0 87 -7 116 -24 99z"/>
<path d="M1936 393 c-11 -11 -6 -23 9 -23 8 0 15 4 15 9 0 13 -16 22 -24 14z"/>
<path d="M2360 300 c0 -60 4 -100 10 -100 6 0 10 40 10 100 0 60 -4 100 -10
100 -6 0 -10 -40 -10 -100z"/>
<path d="M3030 320 c0 -61 3 -81 13 -78 6 3 13 24 15 47 3 33 7 42 20 39 12
-2 18 -15 20 -46 4 -49 25 -54 30 -8 7 60 -22 101 -54 76 -10 -9 -13 -5 -16
16 -2 15 -9 29 -15 32 -10 3 -13 -17 -13 -78z"/>
<path d="M210 315 c0 -74 16 -105 22 -43 3 28 7 32 33 32 26 0 30 -4 33 -32 6
-62 22 -31 22 43 0 43 -4 75 -10 75 -5 0 -10 -14 -10 -31 0 -28 -2 -30 -32
-27 -28 2 -34 8 -36 31 -7 57 -22 24 -22 -48z"/>
<path d="M1490 347 c-26 -58 -36 -107 -22 -107 6 0 14 9 17 20 9 27 52 26 74
-2 10 -12 20 -17 24 -12 8 13 -45 136 -61 142 -7 2 -21 -15 -32 -41z m50 -34
c0 -7 -9 -13 -20 -13 -23 0 -24 4 -9 32 9 17 13 18 20 7 5 -8 9 -20 9 -26z"/>
<path d="M2487 319 c-29 -76 -27 -99 3 -61 23 28 66 30 73 2 6 -22 27 -28 27
-7 0 28 -47 132 -61 135 -11 2 -24 -18 -42 -69z m53 22 c0 -5 3 -16 6 -25 4
-12 0 -16 -15 -16 -22 0 -25 8 -15 34 7 17 24 22 24 7z"/>
<path d="M655 363 c-15 -26 -3 -104 17 -117 21 -13 36 0 20 16 -16 16 -15 65
1 72 10 5 10 7 0 12 -7 3 -13 12 -13 20 0 19 -13 18 -25 -3z"/>
<path d="M1862 363 c-5 -10 -6 -40 -3 -68 5 -42 10 -51 29 -53 12 -2 22 1 22
7 0 6 -4 11 -10 11 -14 0 -12 64 2 78 9 9 9 12 0 12 -7 0 -12 7 -12 15 0 20
-17 19 -28 -2z"/>
<path d="M372 344 c-27 -19 -29 -64 -4 -87 23 -21 43 -21 68 -2 18 15 17 15
-15 13 -20 -2 -36 2 -38 10 -3 8 7 12 31 12 29 0 36 4 36 19 0 17 -33 51 -50
51 -3 0 -16 -7 -28 -16z m46 -22 c2 -7 -6 -12 -17 -12 -21 0 -27 11 -14 24 9
9 26 2 31 -12z"/>
<path d="M493 350 c-13 -5 -23 -14 -23 -20 0 -13 27 -13 35 0 9 15 25 12 25
-4 0 -9 -12 -16 -27 -18 -22 -2 -29 -9 -31 -29 -4 -30 19 -44 47 -29 12 6 22
5 29 -2 9 -9 15 -9 24 0 9 9 9 12 0 12 -7 0 -12 15 -12 40 0 29 -5 42 -19 50
-22 11 -19 11 -48 0z m35 -72 c-6 -18 -28 -21 -28 -4 0 9 7 16 16 16 9 0 14
-5 12 -12z"/>
<path d="M873 347 c-40 -18 -36 -88 6 -102 22 -7 61 10 61 25 0 14 -28 12 -32
-2 -7 -21 -28 3 -28 32 0 29 21 53 28 32 2 -7 10 -12 19 -12 8 0 13 5 11 12
-6 18 -41 26 -65 15z"/>
<path d="M984 346 c-10 -8 -16 -18 -12 -22 4 -4 14 -1 22 5 8 7 20 10 26 6 18
-11 11 -24 -16 -27 -38 -4 -54 -33 -31 -55 13 -14 21 -15 35 -7 12 8 22 8 34
0 21 -13 36 0 20 16 -7 7 -12 27 -12 45 0 22 -6 36 -19 43 -25 13 -23 13 -47
-4z m36 -71 c-12 -15 -30 -12 -30 6 0 5 10 9 21 9 18 0 19 -2 9 -15z"/>
<path d="M1197 352 c-24 -5 -39 -46 -27 -76 11 -29 42 -41 70 -26 27 15 25 21
-6 18 -15 -2 -29 3 -31 10 -3 8 6 12 27 12 28 0 31 3 28 26 -3 28 -29 43 -61
36z m33 -27 c0 -8 -7 -15 -15 -15 -8 0 -15 7 -15 15 0 8 7 15 15 15 8 0 15 -7
15 -15z"/>
<path d="M1661 351 c-7 -5 -22 -6 -33 -3 -17 4 -19 0 -16 -48 4 -65 28 -83 28
-22 0 23 6 45 15 52 17 14 23 5 27 -49 5 -57 28 -51 28 8 0 53 -21 79 -49 62z"/>
<path d="M2036 351 c-3 -5 -15 -7 -27 -4 -19 5 -20 2 -17 -46 4 -63 22 -72 26
-13 4 57 30 58 34 0 4 -55 28 -64 28 -10 0 38 19 69 33 55 4 -3 7 -26 7 -51 0
-30 4 -42 13 -39 17 6 15 96 -3 107 -8 5 -22 4 -33 -2 -13 -7 -22 -7 -30 1
-13 13 -24 14 -31 2z"/>
<path d="M2190 340 c-11 -11 -20 -28 -20 -38 0 -24 28 -62 46 -62 24 0 55 20
48 31 -4 6 -11 6 -20 -2 -15 -12 -44 -6 -44 11 0 5 16 10 35 10 28 0 35 4 35
19 0 18 -34 51 -52 51 -5 0 -17 -9 -28 -20z m48 -18 c2 -7 -6 -12 -17 -12 -21
0 -27 11 -14 24 9 9 26 2 31 -12z"/>
<path d="M2669 349 c-8 -5 -22 -6 -32 -3 -16 5 -18 0 -15 -45 4 -63 22 -72 26
-13 2 23 7 42 13 42 5 0 12 1 17 3 4 1 9 -18 12 -43 5 -49 23 -57 28 -14 7 57
-17 93 -49 73z"/>
<path d="M3172 344 c-47 -33 -13 -114 43 -100 33 8 32 28 -1 24 -15 -2 -29 3
-31 10 -3 8 7 12 31 12 42 0 48 18 16 50 -24 24 -29 24 -58 4z m46 -22 c2 -7
-6 -12 -17 -12 -21 0 -27 11 -14 24 9 9 26 2 31 -12z"/>
<path d="M3316 351 c-3 -5 -15 -7 -27 -4 -19 5 -20 2 -17 -47 4 -65 28 -83 28
-22 0 30 6 43 22 54 14 9 18 17 11 21 -7 4 -14 3 -17 -2z"/>
<path d="M3372 344 c-27 -19 -29 -64 -4 -87 23 -21 43 -21 68 -1 18 15 17 15
-13 10 -22 -4 -33 -1 -37 9 -4 11 3 15 29 15 28 0 35 4 35 19 0 17 -33 51 -50
51 -3 0 -16 -7 -28 -16z m46 -22 c2 -7 -6 -12 -17 -12 -21 0 -27 11 -14 24 9
9 26 2 31 -12z"/>
<path d="M1090 293 c0 -40 3 -53 13 -50 6 2 11 10 9 17 -6 25 10 70 24 70 8 0
14 4 14 9 0 5 -13 9 -30 9 -30 -1 -30 -2 -30 -55z"/>
<path d="M1733 338 c3 -7 13 -33 23 -57 16 -41 16 -45 1 -56 -21 -15 -22 -25
-3 -25 21 0 39 27 62 92 19 51 20 59 6 56 -9 -2 -20 -19 -25 -38 l-10 -35 -15
38 c-8 20 -21 37 -29 37 -9 0 -13 -6 -10 -12z"/>
<path d="M1932 298 c4 -67 22 -65 26 2 2 40 0 50 -13 50 -13 0 -15 -10 -13
-52z"/>
<path d="M2740 345 c0 -2 9 -27 20 -54 l19 -50 -21 -15 c-19 -14 -20 -16 -5
-22 10 -3 24 -1 31 6 15 12 59 130 52 138 -10 9 -25 -10 -31 -38 -9 -40 -21
-38 -29 5 -4 21 -13 35 -21 35 -8 0 -15 -2 -15 -5z"/>
<path d="M2865 299 c8 -28 17 -54 20 -58 10 -9 35 30 35 56 0 35 15 27 26 -14
14 -55 31 -52 48 8 19 63 19 59 3 59 -8 0 -18 -17 -23 -37 l-10 -38 -8 38 c-6
26 -14 37 -26 37 -12 0 -21 -12 -27 -37 l-10 -38 -8 38 c-4 20 -13 37 -20 37
-11 0 -11 -9 0 -51z"/>
</g>
</svg>
